<svg width="181" height="175" viewBox="0 0 181 175" fill="none" xmlns="http://www.w3.org/2000/svg">
<path d="M162.085 118.213H121.089C118.689 118.213 116.387 119.134 114.69 120.775C112.992 122.416 112.039 124.642 112.039 126.963C112.039 129.283 112.992 131.509 114.69 133.15C116.387 134.791 118.689 135.713 121.089 135.713H142.809C132.826 145.799 119.952 152.769 105.841 155.727C91.7301 158.685 77.0264 157.497 63.6195 152.313C50.2125 147.13 38.7147 138.19 30.6034 126.64C22.4921 115.091 18.1378 101.46 18.1 87.5C18.1 85.1794 17.1465 82.9538 15.4493 81.3128C13.7521 79.6719 11.4502 78.75 9.05 78.75C6.64979 78.75 4.34789 79.6719 2.65068 81.3128C0.953479 82.9538 0 85.1794 0 87.5C0.0478443 104.587 5.2691 121.287 15.0194 135.538C24.7697 149.789 38.6224 160.968 54.8678 167.696C71.1133 174.423 89.0405 176.405 106.437 173.396C123.834 170.386 139.939 162.518 152.764 150.762V166.25C152.764 168.571 153.717 170.796 155.415 172.437C157.112 174.078 159.414 175 161.814 175C164.214 175 166.516 174.078 168.213 172.437C169.911 170.796 170.864 168.571 170.864 166.25V126.875C170.842 124.614 169.915 122.45 168.279 120.835C166.642 119.22 164.423 118.28 162.085 118.213ZM90.5 0C67.2993 0.0639817 45.0101 8.7405 28.236 24.2375V8.75C28.236 6.42936 27.2825 4.20376 25.5853 2.56282C23.8881 0.921872 21.5862 0 19.186 0C16.7858 0 14.4839 0.921872 12.7867 2.56282C11.0895 4.20376 10.136 6.42936 10.136 8.75V48.125C10.136 50.4456 11.0895 52.6712 12.7867 54.3122C14.4839 55.9531 16.7858 56.875 19.186 56.875H59.911C62.3112 56.875 64.6131 55.9531 66.3103 54.3122C68.0075 52.6712 68.961 50.4456 68.961 48.125C68.961 45.8044 68.0075 43.5788 66.3103 41.9378C64.6131 40.2969 62.3112 39.375 59.911 39.375H38.191C48.1683 29.2939 61.034 22.3256 75.1367 19.3647C89.2394 16.4038 103.936 17.5853 117.339 22.7575C130.742 27.9298 142.241 36.8569 150.359 48.3928C158.477 59.9287 162.844 73.5471 162.9 87.5C162.9 89.8206 163.853 92.0462 165.551 93.6872C167.248 95.3281 169.55 96.25 171.95 96.25C174.35 96.25 176.652 95.3281 178.349 93.6872C180.047 92.0462 181 89.8206 181 87.5C181 76.0093 178.659 64.6312 174.111 54.0152C169.563 43.3992 162.897 33.7533 154.493 25.6282C146.089 17.503 136.113 11.0578 125.133 6.66054C114.153 2.26326 102.385 0 90.5 0Z" fill="#DDA853"/>
</svg>
