<svg width="28" height="27" viewBox="0 0 28 27" fill="none" xmlns="http://www.w3.org/2000/svg">
<path d="M25.074 18.2385H18.732C18.3607 18.2385 18.0046 18.3807 17.7421 18.6339C17.4795 18.8871 17.332 19.2305 17.332 19.5885C17.332 19.9465 17.4795 20.2899 17.7421 20.5431C18.0046 20.7963 18.3607 20.9385 18.732 20.9385H22.092C20.5477 22.4947 18.5562 23.5701 16.3732 24.0265C14.1903 24.4829 11.9157 24.2995 9.84169 23.4998C7.76768 22.7001 5.98902 21.3207 4.73423 19.5388C3.47944 17.7569 2.80585 15.6539 2.8 13.5C2.8 13.142 2.6525 12.7986 2.38995 12.5454C2.1274 12.2922 1.7713 12.15 1.4 12.15C1.0287 12.15 0.672601 12.2922 0.41005 12.5454C0.1475 12.7986 0 13.142 0 13.5C0.00740132 16.1363 0.815109 18.7128 2.32344 20.9115C3.83178 23.1103 5.97473 24.8351 8.48784 25.8731C11.0009 26.911 13.7742 27.2167 16.4654 26.7525C19.1566 26.2882 21.648 25.0743 23.632 23.2605V25.65C23.632 26.008 23.7795 26.3514 24.042 26.6046C24.3046 26.8578 24.6607 27 25.032 27C25.4033 27 25.7594 26.8578 26.0219 26.6046C26.2845 26.3514 26.432 26.008 26.432 25.65V19.575C26.4285 19.2262 26.2852 18.8922 26.0321 18.6431C25.7789 18.3939 25.4356 18.2489 25.074 18.2385ZM14 0C10.4109 0.00987146 6.96289 1.34853 4.368 3.7395V1.35C4.368 0.991958 4.2205 0.64858 3.95795 0.395406C3.6954 0.142232 3.3393 0 2.968 0C2.5967 0 2.2406 0.142232 1.97805 0.395406C1.7155 0.64858 1.568 0.991958 1.568 1.35V7.425C1.568 7.78304 1.7155 8.12642 1.97805 8.37959C2.2406 8.63277 2.5967 8.775 2.968 8.775H9.268C9.6393 8.775 9.9954 8.63277 10.2579 8.37959C10.5205 8.12642 10.668 7.78304 10.668 7.425C10.668 7.06696 10.5205 6.72358 10.2579 6.47041C9.9954 6.21723 9.6393 6.075 9.268 6.075H5.908C7.45145 4.51963 9.44173 3.44452 11.6234 2.9877C13.805 2.53087 16.0784 2.71316 18.1518 3.51116C20.2253 4.30917 22.0041 5.68649 23.2599 7.46631C24.5158 9.24614 25.1914 11.3473 25.2 13.5C25.2 13.858 25.3475 14.2014 25.61 14.4546C25.8726 14.7078 26.2287 14.85 26.6 14.85C26.9713 14.85 27.3274 14.7078 27.59 14.4546C27.8525 14.2014 28 13.858 28 13.5C28 11.7272 27.6379 9.97167 26.9343 8.33377C26.2307 6.69588 25.1995 5.20765 23.8995 3.95406C22.5995 2.70047 21.0561 1.70606 19.3576 1.02763C17.659 0.349188 15.8385 0 14 0Z" fill="white"/>
</svg>
