<svg width="177" height="177" viewBox="0 0 177 177" fill="none" xmlns="http://www.w3.org/2000/svg">
<rect x="7.5" y="7.5" width="162" height="162" rx="81" stroke="#DDA853" stroke-width="15"/>
<mask id="path-2-outside-1_4107_89" maskUnits="userSpaceOnUse" x="62" y="48" width="53" height="75" fill="black">
<rect fill="white" x="62" y="48" width="53" height="75"/>
<path d="M64.892 121V111.864L89.1307 88.1023C91.4489 85.7614 93.3807 83.6818 94.9261 81.8636C96.4716 80.0455 97.6307 78.2841 98.4034 76.5795C99.1761 74.875 99.5625 73.0568 99.5625 71.125C99.5625 68.9205 99.0625 67.0341 98.0625 65.4659C97.0625 63.875 95.6875 62.6477 93.9375 61.7841C92.1875 60.9205 90.1989 60.4886 87.9716 60.4886C85.6761 60.4886 83.6648 60.9659 81.9375 61.9205C80.2102 62.8523 78.8693 64.1818 77.9148 65.9091C76.983 67.6364 76.517 69.6932 76.517 72.0795H64.483C64.483 67.6477 65.4943 63.7955 67.517 60.5227C69.5398 57.25 72.3239 54.7159 75.8693 52.9205C79.4375 51.125 83.5284 50.2273 88.142 50.2273C92.8239 50.2273 96.9375 51.1023 100.483 52.8523C104.028 54.6023 106.778 57 108.733 60.0455C110.71 63.0909 111.699 66.5682 111.699 70.4773C111.699 73.0909 111.199 75.6591 110.199 78.1818C109.199 80.7045 107.438 83.5 104.915 86.5682C102.415 89.6364 98.9034 93.3523 94.3807 97.7159L82.3466 109.955V110.432H112.756V121H64.892Z"/>
</mask>
<path d="M64.892 121V111.864L89.1307 88.1023C91.4489 85.7614 93.3807 83.6818 94.9261 81.8636C96.4716 80.0455 97.6307 78.2841 98.4034 76.5795C99.1761 74.875 99.5625 73.0568 99.5625 71.125C99.5625 68.9205 99.0625 67.0341 98.0625 65.4659C97.0625 63.875 95.6875 62.6477 93.9375 61.7841C92.1875 60.9205 90.1989 60.4886 87.9716 60.4886C85.6761 60.4886 83.6648 60.9659 81.9375 61.9205C80.2102 62.8523 78.8693 64.1818 77.9148 65.9091C76.983 67.6364 76.517 69.6932 76.517 72.0795H64.483C64.483 67.6477 65.4943 63.7955 67.517 60.5227C69.5398 57.25 72.3239 54.7159 75.8693 52.9205C79.4375 51.125 83.5284 50.2273 88.142 50.2273C92.8239 50.2273 96.9375 51.1023 100.483 52.8523C104.028 54.6023 106.778 57 108.733 60.0455C110.71 63.0909 111.699 66.5682 111.699 70.4773C111.699 73.0909 111.199 75.6591 110.199 78.1818C109.199 80.7045 107.438 83.5 104.915 86.5682C102.415 89.6364 98.9034 93.3523 94.3807 97.7159L82.3466 109.955V110.432H112.756V121H64.892Z" fill="#DDA853"/>
<path d="M64.892 121H62.892V123H64.892V121ZM64.892 111.864L63.492 110.435L62.892 111.024V111.864H64.892ZM89.1307 88.1023L90.5308 89.5305L90.5414 89.5201L90.5518 89.5096L89.1307 88.1023ZM98.4034 76.5795L100.225 77.4053V77.4053L98.4034 76.5795ZM98.0625 65.4659L96.3692 66.5303L96.3762 66.5412L98.0625 65.4659ZM93.9375 61.7841L93.0524 63.5776L93.0524 63.5776L93.9375 61.7841ZM81.9375 61.9205L82.8871 63.6807L82.896 63.6758L82.9049 63.6709L81.9375 61.9205ZM77.9148 65.9091L76.1643 64.9417L76.1594 64.9506L76.1546 64.9595L77.9148 65.9091ZM76.517 72.0795V74.0795H78.517V72.0795H76.517ZM64.483 72.0795H62.483V74.0795H64.483V72.0795ZM67.517 60.5227L69.2183 61.5742L67.517 60.5227ZM75.8693 52.9205L74.9703 51.1339L74.9658 51.1362L75.8693 52.9205ZM100.483 52.8523L101.368 51.0588V51.0588L100.483 52.8523ZM108.733 60.0455L107.05 61.1257L107.055 61.1346L108.733 60.0455ZM110.199 78.1818L108.34 77.4448V77.4448L110.199 78.1818ZM104.915 86.5682L103.37 85.298L103.364 85.3048L104.915 86.5682ZM94.3807 97.7159L92.992 96.2766L92.9731 96.2949L92.9546 96.3137L94.3807 97.7159ZM82.3466 109.955L80.9205 108.552L80.3466 109.136V109.955H82.3466ZM82.3466 110.432H80.3466V112.432H82.3466V110.432ZM112.756 110.432H114.756V108.432H112.756V110.432ZM112.756 121V123H114.756V121H112.756ZM64.892 121H66.892V111.864H64.892H62.892V121H64.892ZM64.892 111.864L66.2921 113.292L90.5308 89.5305L89.1307 88.1023L87.7306 86.6741L63.492 110.435L64.892 111.864ZM89.1307 88.1023L90.5518 89.5096C92.8933 87.1451 94.8621 85.0271 96.45 83.1589L94.9261 81.8636L93.4023 80.5683C91.8993 82.3365 90.0044 84.3776 87.7096 86.695L89.1307 88.1023ZM94.9261 81.8636L96.45 83.1589C98.0847 81.2358 99.3576 79.3186 100.225 77.4053L98.4034 76.5795L96.5818 75.7538C95.9037 77.2496 94.8585 78.8551 93.4023 80.5683L94.9261 81.8636ZM98.4034 76.5795L100.225 77.4053C101.119 75.4329 101.562 73.3322 101.562 71.125H99.5625H97.5625C97.5625 72.7814 97.2331 74.3171 96.5818 75.7538L98.4034 76.5795ZM99.5625 71.125H101.562C101.562 68.6111 100.989 66.3355 99.7488 64.3906L98.0625 65.4659L96.3762 66.5412C97.136 67.7327 97.5625 69.2299 97.5625 71.125H99.5625ZM98.0625 65.4659L99.7558 64.4016C98.5512 62.4851 96.8908 61.0113 94.8226 59.9906L93.9375 61.7841L93.0524 63.5776C94.4842 64.2842 95.5738 65.2649 96.3692 66.5303L98.0625 65.4659ZM93.9375 61.7841L94.8226 59.9906C92.7608 58.9731 90.4623 58.4886 87.9716 58.4886V60.4886V62.4886C89.9354 62.4886 91.6142 62.8678 93.0524 63.5776L93.9375 61.7841ZM87.9716 60.4886V58.4886C85.3933 58.4886 83.0387 59.0268 80.9701 60.17L81.9375 61.9205L82.9049 63.6709C84.2909 62.905 85.9589 62.4886 87.9716 62.4886V60.4886ZM81.9375 61.9205L80.9879 60.1603C78.9212 61.2752 77.3032 62.8808 76.1643 64.9417L77.9148 65.9091L79.6653 66.8765C80.4354 65.4828 81.4992 64.4294 82.8871 63.6807L81.9375 61.9205ZM77.9148 65.9091L76.1546 64.9595C75.0348 67.0352 74.517 69.4326 74.517 72.0795H76.517H78.517C78.517 69.9537 78.9311 68.2375 79.675 66.8587L77.9148 65.9091ZM76.517 72.0795V70.0795H64.483V72.0795V74.0795H76.517V72.0795ZM64.483 72.0795H66.483C66.483 67.9616 67.4191 64.4854 69.2183 61.5742L67.517 60.5227L65.8158 59.4712C63.5696 63.1055 62.483 67.3338 62.483 72.0795H64.483ZM67.517 60.5227L69.2183 61.5742C71.041 58.6251 73.5443 56.3397 76.7729 54.7047L75.8693 52.9205L74.9658 51.1362C71.1034 53.0921 68.0385 55.8749 65.8158 59.4712L67.517 60.5227ZM75.8693 52.9205L76.7683 54.707C80.0173 53.0722 83.7921 52.2273 88.142 52.2273V50.2273V48.2273C83.2647 48.2273 78.8577 49.1778 74.9703 51.1339L75.8693 52.9205ZM88.142 50.2273V52.2273C92.573 52.2273 96.3738 53.0544 99.5977 54.6457L100.483 52.8523L101.368 51.0588C97.5012 49.1501 93.0748 48.2273 88.142 48.2273V50.2273ZM100.483 52.8523L99.5977 54.6457C102.849 56.2503 105.309 58.414 107.05 61.1257L108.733 60.0455L110.416 58.9652C108.247 55.586 105.208 52.9543 101.368 51.0588L100.483 52.8523ZM108.733 60.0455L107.055 61.1346C108.806 63.8308 109.699 66.9238 109.699 70.4773H111.699H113.699C113.699 66.2125 112.614 62.351 110.41 58.9564L108.733 60.0455ZM111.699 70.4773H109.699C109.699 72.8289 109.25 75.1475 108.34 77.4448L110.199 78.1818L112.058 78.9188C113.147 76.1706 113.699 73.3529 113.699 70.4773H111.699ZM110.199 78.1818L108.34 77.4448C107.443 79.7076 105.816 82.3229 103.37 85.298L104.915 86.5682L106.46 87.8384C109.059 84.6771 110.955 81.7015 112.058 78.9188L110.199 78.1818ZM104.915 86.5682L103.364 85.3048C100.935 88.2862 97.4865 91.9403 92.992 96.2766L94.3807 97.7159L95.7694 99.1552C100.32 94.7643 103.895 90.9865 106.465 87.8315L104.915 86.5682ZM94.3807 97.7159L92.9546 96.3137L80.9205 108.552L82.3466 109.955L83.7727 111.357L95.8068 99.1182L94.3807 97.7159ZM82.3466 109.955H80.3466V110.432H82.3466H84.3466V109.955H82.3466ZM82.3466 110.432V112.432H112.756V110.432V108.432H82.3466V110.432ZM112.756 110.432H110.756V121H112.756H114.756V110.432H112.756ZM112.756 121V119H64.892V121V123H112.756V121Z" fill="#DDA853" mask="url(#path-2-outside-1_4107_89)"/>
</svg>
