<svg width="28" height="29" viewBox="0 0 28 29" fill="none" xmlns="http://www.w3.org/2000/svg">
<rect x="1" y="2" width="26" height="26" rx="13" stroke="white" stroke-width="2"/>
<path d="M9.81942 21V19.3821L14.1117 15.1744C14.5222 14.7598 14.8643 14.3916 15.138 14.0696C15.4116 13.7476 15.6169 13.4357 15.7537 13.1339C15.8906 12.832 15.959 12.5101 15.959 12.168C15.959 11.7776 15.8704 11.4435 15.6934 11.1658C15.5163 10.8841 15.2728 10.6668 14.9629 10.5138C14.653 10.3609 14.3008 10.2844 13.9064 10.2844C13.4999 10.2844 13.1438 10.369 12.8379 10.538C12.532 10.703 12.2946 10.9384 12.1255 11.2443C11.9605 11.5502 11.878 11.9144 11.878 12.337H9.74698C9.74698 11.5522 9.92608 10.87 10.2843 10.2905C10.6425 9.71094 11.1355 9.26219 11.7633 8.94425C12.3952 8.6263 13.1196 8.46733 13.9366 8.46733C14.7657 8.46733 15.4941 8.62228 16.122 8.93217C16.7498 9.24207 17.2368 9.66667 17.5829 10.206C17.9331 10.7453 18.1081 11.361 18.1081 12.0533C18.1081 12.5161 18.0196 12.9709 17.8425 13.4176C17.6654 13.8643 17.3535 14.3594 16.9068 14.9027C16.4641 15.446 15.8423 16.104 15.0414 16.8768L12.9103 19.044V19.1286H18.2953V21H9.81942Z" fill="white"/>
</svg>
