<svg width="167" height="167" viewBox="0 0 167 167" fill="none" xmlns="http://www.w3.org/2000/svg">
<path d="M158.619 20.15L164.545 14.3072C166.117 12.7355 167 10.6038 167 8.38098C167 6.1582 166.117 4.02647 164.545 2.45473C162.974 0.882993 160.842 0 158.619 0C156.396 0 154.265 0.882993 152.693 2.45473L141.007 14.2238L117.386 37.8453L64.7172 90.4303C56.087 84.7364 45.6503 82.4487 35.4296 84.0106C25.2089 85.5726 15.9319 90.8728 9.39603 98.8844C2.86019 106.896 -0.469069 117.048 0.0533454 127.375C0.57576 137.701 4.91265 147.465 12.2237 154.776C19.5347 162.087 29.2993 166.424 39.6255 166.947C49.9516 167.469 60.1041 164.14 68.1156 157.604C76.1272 151.068 81.4274 141.791 82.9893 131.57C84.5513 121.35 82.2636 110.913 76.5697 102.283L123.228 55.5405L140.924 73.3193C141.702 74.092 142.625 74.704 143.64 75.1201C144.654 75.5362 145.741 75.7484 146.838 75.7445C147.935 75.7406 149.02 75.5208 150.032 75.0975C151.043 74.6742 151.962 74.0558 152.735 73.2775C153.507 72.4993 154.119 71.5765 154.535 70.5617C154.951 69.547 155.164 68.4603 155.16 67.3635C155.156 66.2668 154.936 65.1816 154.513 64.1698C154.089 63.158 153.471 62.2396 152.693 61.4668L134.998 43.7715L146.85 32.0025L152.693 37.8453C153.466 38.6235 154.384 39.2419 155.396 39.6652C156.408 40.0885 157.493 40.3084 158.59 40.3122C159.686 40.3161 160.773 40.1039 161.788 39.6878C162.802 39.2717 163.725 38.6598 164.504 37.887C165.282 37.1142 165.9 36.1958 166.323 35.184C166.747 34.1722 166.967 33.087 166.971 31.9903C166.974 30.8935 166.762 29.8068 166.346 28.7921C165.93 27.7773 165.318 26.8545 164.545 26.0762L158.619 20.15ZM41.7635 150.277C36.8109 150.277 31.9696 148.808 27.8517 146.057C23.7338 143.305 20.5243 139.395 18.6291 134.819C16.7338 130.244 16.2379 125.209 17.2041 120.351C18.1703 115.494 20.5552 111.032 24.0572 107.53C27.5591 104.028 32.0209 101.643 36.8783 100.677C41.7357 99.711 46.7705 100.207 51.346 102.102C55.9216 103.997 59.8324 107.207 62.5839 111.325C65.3353 115.443 66.8039 120.284 66.8039 125.237C66.8039 131.878 64.1658 138.247 59.4698 142.943C54.7738 147.639 48.4046 150.277 41.7635 150.277Z" fill="#D29F4D"/>
</svg>
