<svg width="28" height="28" viewBox="0 0 28 28" fill="none" xmlns="http://www.w3.org/2000/svg">
<path d="M26.5948 3.37844L27.5884 2.39882C27.852 2.13529 28 1.77787 28 1.40519C28 1.03251 27.852 0.675097 27.5884 0.411572C27.3249 0.148047 26.9675 0 26.5948 0C26.2221 0 25.8647 0.148047 25.6012 0.411572L23.6419 2.38482L19.6814 6.34532L10.8508 15.162C9.4038 14.2073 7.65395 13.8237 5.9403 14.0856C4.22665 14.3475 2.67121 15.2362 1.57538 16.5794C0.479553 17.9227 -0.0786463 19.6249 0.00894414 21.3562C0.0965345 23.0875 0.823678 24.7247 2.04948 25.9505C3.27528 27.1763 4.91246 27.9035 6.64379 27.9911C8.37512 28.0786 10.0773 27.5204 11.4206 26.4246C12.7638 25.3288 13.6525 23.7733 13.9144 22.0597C14.1763 20.3461 13.7927 18.5962 12.838 17.1492L20.6611 9.31219L23.6279 12.2931C23.7584 12.4226 23.9131 12.5252 24.0833 12.595C24.2534 12.6648 24.4356 12.7003 24.6195 12.6997C24.8034 12.699 24.9853 12.6622 25.155 12.5912C25.3246 12.5202 25.4786 12.4165 25.6082 12.2861C25.7377 12.1556 25.8403 12.0008 25.9101 11.8307C25.9799 11.6606 26.0155 11.4784 26.0148 11.2945C26.0142 11.1106 25.9773 10.9286 25.9063 10.759C25.8354 10.5894 25.7317 10.4354 25.6012 10.3058L22.6343 7.33894L24.6216 5.36569L25.6012 6.34532C25.7308 6.4758 25.8847 6.57949 26.0544 6.65045C26.224 6.72142 26.406 6.75829 26.5899 6.75894C26.7737 6.75959 26.9559 6.72401 27.1261 6.65424C27.2962 6.58447 27.4509 6.48188 27.5814 6.35231C27.7119 6.22275 27.8156 6.06875 27.8866 5.89911C27.9575 5.72948 27.9944 5.54752 27.9951 5.36364C27.9957 5.17976 27.9601 4.99754 27.8904 4.82741C27.8206 4.65728 27.718 4.50255 27.5884 4.37207L26.5948 3.37844ZM7.00226 25.1961C6.17189 25.1961 5.36017 24.9499 4.66975 24.4886C3.97932 24.0273 3.44121 23.3716 3.12344 22.6044C2.80567 21.8372 2.72253 20.9931 2.88453 20.1787C3.04652 19.3643 3.44638 18.6162 4.03354 18.029C4.62069 17.4419 5.36878 17.042 6.18319 16.88C6.9976 16.718 7.84176 16.8012 8.60892 17.1189C9.37607 17.4367 10.0318 17.9748 10.4931 18.6652C10.9544 19.3557 11.2007 20.1674 11.2007 20.9977C11.2007 22.1112 10.7583 23.1791 9.97098 23.9665C9.18362 24.7538 8.11574 25.1961 7.00226 25.1961Z" fill="white"/>
</svg>
